<svg xmlns="http://www.w3.org/2000/svg" xmlns:xlink="http://www.w3.org/1999/xlink" width="16px" height="16px" viewBox="0 0 16 16" version="1.1">
<g id="surface1">
<path style=" stroke:none;fill-rule:nonzero;fill:rgb(52.941176%,53.333333%,53.333333%);fill-opacity:1;" d="M 16 8 C 16 12.417969 12.417969 16 8 16 C 3.582031 16 0 12.417969 0 8 C 0 3.582031 3.582031 0 8 0 C 12.417969 0 16 3.582031 16 8 Z M 16 8 "/>
<path style=" stroke:none;fill-rule:nonzero;fill:rgb(98.431373%,99.215686%,100%);fill-opacity:1;" d="M 7.378906 8.96875 C 7.386719 9.328125 7.289062 9.679688 7.09375 9.984375 C 6.882812 10.296875 6.585938 10.542969 6.238281 10.691406 C 5.820312 10.867188 5.367188 10.953125 4.910156 10.941406 C 4.300781 10.941406 3.796875 10.824219 3.398438 10.59375 C 3.117188 10.429688 2.878906 10.199219 2.703125 9.921875 C 2.546875 9.683594 2.460938 9.402344 2.457031 9.117188 C 2.453125 8.96875 2.507812 8.828125 2.609375 8.722656 C 2.714844 8.617188 2.855469 8.558594 3 8.558594 C 3.128906 8.550781 3.253906 8.59375 3.347656 8.683594 C 3.453125 8.789062 3.535156 8.914062 3.585938 9.054688 C 3.648438 9.226562 3.730469 9.394531 3.832031 9.550781 C 3.9375 9.6875 4.074219 9.800781 4.230469 9.871094 C 4.4375 9.964844 4.660156 10.007812 4.886719 9.996094 C 5.207031 10.015625 5.523438 9.925781 5.792969 9.75 C 6.011719 9.601562 6.140625 9.355469 6.140625 9.089844 C 6.144531 8.90625 6.078125 8.730469 5.953125 8.59375 C 5.8125 8.460938 5.644531 8.363281 5.457031 8.308594 C 5.257812 8.25 5 8.171875 4.664062 8.097656 C 4.28125 8.011719 3.90625 7.886719 3.546875 7.726562 C 3.261719 7.601562 3.015625 7.40625 2.828125 7.15625 C 2.644531 6.890625 2.554688 6.574219 2.566406 6.25 C 2.566406 5.925781 2.664062 5.609375 2.851562 5.347656 C 3.054688 5.0625 3.335938 4.847656 3.660156 4.726562 C 4.054688 4.578125 4.476562 4.503906 4.898438 4.515625 C 5.234375 4.507812 5.570312 4.550781 5.890625 4.652344 C 6.144531 4.730469 6.378906 4.855469 6.585938 5.023438 C 6.75 5.160156 6.886719 5.328125 6.984375 5.519531 C 7.0625 5.675781 7.105469 5.851562 7.105469 6.027344 C 7.109375 6.179688 7.058594 6.324219 6.957031 6.4375 C 6.859375 6.550781 6.710938 6.613281 6.5625 6.609375 C 6.441406 6.625 6.320312 6.585938 6.226562 6.511719 C 6.125 6.40625 6.042969 6.285156 5.976562 6.152344 C 5.886719 5.945312 5.75 5.757812 5.582031 5.605469 C 5.417969 5.472656 5.160156 5.40625 4.8125 5.40625 C 4.535156 5.394531 4.261719 5.46875 4.03125 5.617188 C 3.847656 5.730469 3.738281 5.925781 3.734375 6.140625 C 3.730469 6.253906 3.765625 6.367188 3.832031 6.460938 C 3.90625 6.558594 4 6.640625 4.105469 6.699219 C 4.222656 6.761719 4.347656 6.8125 4.476562 6.847656 C 4.601562 6.882812 4.789062 6.945312 5.074219 7.007812 C 5.394531 7.082031 5.714844 7.171875 6.027344 7.28125 C 6.285156 7.371094 6.527344 7.496094 6.746094 7.652344 C 6.945312 7.785156 7.105469 7.964844 7.21875 8.171875 C 7.335938 8.421875 7.390625 8.695312 7.378906 8.96875 Z M 11.101562 10.828125 L 9.203125 10.828125 C 8.929688 10.828125 8.730469 10.777344 8.621094 10.652344 C 8.507812 10.53125 8.433594 10.332031 8.433594 10.046875 L 8.433594 5.394531 C 8.433594 5.121094 8.496094 4.925781 8.609375 4.800781 C 8.71875 4.675781 8.929688 4.625 9.191406 4.625 L 11.210938 4.625 C 11.46875 4.621094 11.726562 4.640625 11.980469 4.675781 C 12.1875 4.710938 12.386719 4.78125 12.5625 4.886719 C 12.710938 4.976562 12.839844 5.089844 12.949219 5.222656 C 13.175781 5.488281 13.296875 5.828125 13.296875 6.175781 C 13.296875 6.804688 12.984375 7.261719 12.367188 7.542969 C 13.191406 7.804688 13.601562 8.3125 13.59375 9.066406 C 13.59375 9.398438 13.5 9.71875 13.320312 9.996094 C 13.148438 10.273438 12.898438 10.488281 12.601562 10.617188 C 12.394531 10.703125 12.179688 10.761719 11.957031 10.789062 C 11.667969 10.828125 11.378906 10.84375 11.089844 10.839844 Z M 9.699219 5.582031 L 9.699219 7.195312 L 10.851562 7.195312 C 11.101562 7.199219 11.347656 7.167969 11.585938 7.09375 C 11.75 7.035156 11.886719 6.917969 11.96875 6.757812 C 12.042969 6.640625 12.082031 6.503906 12.082031 6.363281 C 12.082031 6.046875 11.96875 5.84375 11.746094 5.742188 C 11.523438 5.644531 11.183594 5.589844 10.730469 5.582031 Z M 11.015625 8.0625 L 9.699219 8.0625 L 9.699219 9.871094 L 11.0625 9.871094 C 11.90625 9.871094 12.328125 9.566406 12.328125 8.953125 C 12.328125 8.644531 12.21875 8.410156 11.992188 8.273438 C 11.769531 8.136719 11.449219 8.0625 11 8.0625 Z M 11.015625 8.0625 "/>
</g>
</svg>
